<svg xmlns="http://www.w3.org/2000/svg" xmlns:xlink="http://www.w3.org/1999/xlink" version="1.1" x="0px" y="0px" viewBox="0 0 100 125" enable-background="new 0 0 100 100" xml:space="preserve"><path d="M71.57,89.179l-19.34-42.51l15.882-34.907l1.53,0.696c1.129,0.514,1.428-0.455,1.942-1.585l0.019-0.041  c0.514-1.129,1.048-1.991-0.081-2.505l-6.754-3.073c-1.129-0.514-1.428,0.455-1.942,1.585L62.807,6.88  c-0.514,1.129-1.048,1.991,0.081,2.505l1.53,0.696L50,41.769L35.583,10.082l1.53-0.696c1.129-0.514,0.595-1.375,0.081-2.505  L37.175,6.84c-0.514-1.129-0.812-2.098-1.942-1.585L28.48,8.328c-1.129,0.514-0.595,1.376-0.081,2.505l0.019,0.041  c0.514,1.129,0.812,2.098,1.942,1.585l1.53-0.696l15.88,34.906l-19.34,42.51l-0.613,5.126c-0.061,0.51,0.502,0.766,0.847,0.385  l3.461-3.83L50,51.57l17.876,39.29l3.461,3.83c0.344,0.381,0.908,0.125,0.847-0.385L71.57,89.179z"/><text x="0" y="115" fill="#000000" font-size="5px" font-weight="bold" font-family="'Helvetica Neue', Helvetica, Arial-Unicode, Arial, Sans-serif">Created by Gemma Garner</text><text x="0" y="120" fill="#000000" font-size="5px" font-weight="bold" font-family="'Helvetica Neue', Helvetica, Arial-Unicode, Arial, Sans-serif">from the Noun Project</text></svg>