<?xml version="1.0" encoding="utf-8"?>
<!-- Generator: Adobe Illustrator 16.0.0, SVG Export Plug-In . SVG Version: 6.00 Build 0)  -->
<!DOCTYPE svg PUBLIC "-//W3C//DTD SVG 1.1//EN" "http://www.w3.org/Graphics/SVG/1.1/DTD/svg11.dtd">
<svg version="1.1" id="Layer_1" xmlns="http://www.w3.org/2000/svg" xmlns:xlink="http://www.w3.org/1999/xlink" x="0px" y="0px"
	 width="48px" height="48px" viewBox="0 0 48 48" enable-background="new 0 0 48 48" xml:space="preserve">
<path d="M32.283,34.244l-7.427-16.323l6.099-13.404l0.588,0.267c0.434,0.198,0.548-0.174,0.745-0.608l0.007-0.016
	c0.198-0.434,0.402-0.765-0.03-0.962l-2.594-1.18c-0.434-0.197-0.548,0.175-0.745,0.608l-0.008,0.016
	c-0.197,0.434-0.402,0.764,0.031,0.962l0.588,0.267L24,16.039L18.464,3.872l0.587-0.268c0.434-0.197,0.229-0.528,0.031-0.962
	l-0.007-0.016c-0.197-0.434-0.312-0.806-0.746-0.608l-2.593,1.18c-0.434,0.198-0.229,0.529-0.031,0.962l0.007,0.016
	c0.197,0.434,0.312,0.806,0.746,0.608l0.588-0.267l6.098,13.404l-7.426,16.323l-0.235,1.969c-0.023,0.196,0.192,0.295,0.325,0.148
	l1.329-1.471L24,19.803l6.864,15.088l1.329,1.471c0.133,0.146,0.349,0.048,0.325-0.148L32.283,34.244z"/>
</svg>
