<?xml version="1.0" encoding="utf-8"?>
<!-- Generator: Adobe Illustrator 16.0.0, SVG Export Plug-In . SVG Version: 6.00 Build 0)  -->
<!DOCTYPE svg PUBLIC "-//W3C//DTD SVG 1.1//EN" "http://www.w3.org/Graphics/SVG/1.1/DTD/svg11.dtd">
<svg version="1.1" id="Layer_1" xmlns="http://www.w3.org/2000/svg" xmlns:xlink="http://www.w3.org/1999/xlink" x="0px" y="0px"
	 width="34.622px" height="28.169px" viewBox="7.938 9.072 34.622 28.169" enable-background="new 7.938 9.072 34.622 28.169"
	 xml:space="preserve">
<g>
	<g>
		<path fill="#dff1ec" d="M23.675,33.258c-5.141,0-9.368-3.866-9.833-8.993c-0.491-5.428,3.524-10.244,8.952-10.735
			c0.299-0.027,0.603-0.041,0.902-0.041c5.141,0,9.368,3.866,9.832,8.993c0.238,2.629-0.561,5.194-2.252,7.221
			c-1.69,2.028-4.07,3.275-6.698,3.513C24.278,33.243,23.974,33.258,23.675,33.258z M23.696,14.208c-0.278,0-0.56,0.013-0.837,0.038
			c-5.033,0.456-8.756,4.921-8.3,9.953c0.431,4.754,4.35,8.338,9.117,8.338c0.277,0,0.559-0.012,0.837-0.037
			c2.438-0.221,4.645-1.379,6.211-3.258c1.568-1.881,2.311-4.259,2.09-6.696C32.382,17.793,28.462,14.208,23.696,14.208z"/>
	</g>
	<g>
		<path fill="#dff1ec" d="M16.003,29.155l-0.259-0.672c9.319-3.599,7.718-14.173,7.646-14.621l0.71-0.115
			C24.118,13.862,25.87,25.343,16.003,29.155z"/>
	</g>
	<g>
		<path fill="#dff1ec" d="M15.237,27.61l-0.259-0.671c8.246-3.185,6.773-12.83,6.758-12.927l0.71-0.116
			C22.462,14,24.021,24.217,15.237,27.61z"/>
	</g>
	<g>
		<path fill="#dff1ec" d="M16.994,30.444l-0.259-0.672c10.076-3.892,8.277-15.67,8.258-15.789l0.711-0.116
			C25.723,13.992,27.608,26.344,16.994,30.444z"/>
	</g>
	<g>
		<path fill="#dff1ec" d="M32.015,37.241c-0.012,0-0.023,0-0.034-0.001c-0.198-0.019-0.343-0.194-0.325-0.392
			c0.071-0.764-0.14-1.336-0.645-1.75c-1.178-0.969-4.013-0.98-7.224-0.029c-4.155,1.229-6.601,0.756-7.267-1.408
			c-0.189-0.616-0.154-1.177,0.105-1.666c0.446-0.838,1.394-1.134,1.435-1.146c10.409-4.021,8.556-16.235,8.535-16.358
			c-0.031-0.196,0.102-0.381,0.298-0.413c0.194-0.033,0.381,0.101,0.413,0.297c0.021,0.128,1.973,12.911-9.012,17.154
			c-0.178,0.057-1.519,0.52-1.087,1.92c0.528,1.714,2.673,2.027,6.375,0.93c3.538-1.047,6.486-0.985,7.885,0.164
			c0.684,0.561,0.996,1.381,0.904,2.373C32.354,37.102,32.198,37.241,32.015,37.241z"/>
	</g>
	<g>
		<path fill="#dff1ec" d="M16.003,29.155l-0.259-0.672c9.319-3.599,7.718-14.173,7.646-14.621l0.71-0.115
			C24.118,13.862,25.87,25.343,16.003,29.155z"/>
	</g>
	<g>
		<path fill="#dff1ec" d="M15.237,27.61l-0.259-0.671c8.246-3.185,6.773-12.83,6.758-12.927l0.71-0.116
			C22.462,14,24.021,24.217,15.237,27.61z"/>
	</g>
	<g>
		<path fill="#dff1ec" d="M16.994,30.444l-0.259-0.672c10.076-3.892,8.277-15.67,8.258-15.789l0.711-0.116
			C25.723,13.992,27.608,26.344,16.994,30.444z"/>
	</g>
	<g>
		<g>
			<g>
				<path fill="#dff1ec" d="M18.479,25.514c-1.565-0.436-3.086-1.16-4.519-2.151l0.409-0.591c1.367,0.945,2.814,1.635,4.303,2.049
					L18.479,25.514z"/>
			</g>
			<g>
				<path fill="#dff1ec" d="M25.111,25.737l-0.136-0.706c3.594-0.693,6.479-2.543,7.879-3.584l0.428,0.577
					C31.834,23.102,28.846,25.018,25.111,25.737z"/>
			</g>
		</g>
		<g>
			<path fill="#dff1ec" d="M19.997,23.828c-2.03-0.369-3.963-1.227-5.748-2.549l0.428-0.578c1.695,1.257,3.528,2.071,5.448,2.42
				L19.997,23.828z"/>
		</g>
		<g>
			<path fill="#dff1ec" d="M26.144,23.542l-0.182-0.696c3.836-0.994,6.547-3.222,6.574-3.245l0.46,0.553
				C32.882,20.25,30.132,22.508,26.144,23.542z"/>
		</g>
		<g>
			<g>
				<path fill="#dff1ec" d="M16.859,26.689c-0.936-0.354-1.858-0.809-2.742-1.352l0.376-0.613c0.845,0.52,1.727,0.955,2.62,1.293
					L16.859,26.689z"/>
			</g>
			<g>
				<path fill="#dff1ec" d="M23.827,27.574l-0.074-0.716c4.106-0.427,7.559-2.443,9.252-3.608l0.408,0.593
					C31.275,25.312,27.878,27.152,23.827,27.574z"/>
			</g>
		</g>
	</g>
	<g>
		<path fill="#dff1ec" d="M25.771,32.858l-0.66-0.287c0.847-1.949,1.229-3.926,1.139-5.877l0.719-0.034
			C27.065,28.722,26.662,30.808,25.771,32.858z"/>
	</g>
	<g>
		<path fill="#dff1ec" d="M21.912,17.22c-1.275-1.387-2.353-2.169-2.364-2.176l0.42-0.584c0.046,0.033,1.145,0.829,2.473,2.274
			L21.912,17.22z"/>
	</g>
	<g>
		<path fill="#dff1ec" d="M28.063,32.138l-0.661-0.281c0.839-1.967,1.204-3.96,1.088-5.925l0.718-0.042
			C29.331,27.967,28.946,30.069,28.063,32.138z"/>
	</g>
	<g>
		<path fill="#dff1ec" d="M27.833,22.606c-0.309-0.914-0.725-1.828-1.238-2.716l0.623-0.36c0.537,0.93,0.974,1.888,1.297,2.847
			L27.833,22.606z"/>
	</g>
	<g>
		<path fill="#dff1ec" d="M29.89,31.005l-0.669-0.263c0.726-1.847,1.035-3.718,0.921-5.563l0.717-0.045
			C30.98,27.086,30.655,29.062,29.89,31.005z"/>
	</g>
	<g>
		<path fill="#dff1ec" d="M29.476,21.863c-0.558-1.64-1.449-3.248-2.652-4.782l0.566-0.444c1.252,1.597,2.184,3.277,2.768,4.994
			L29.476,21.863z"/>
	</g>
	<g>
		<path fill="#dff1ec" d="M31.652,29.192l-0.683-0.228c0.514-1.535,0.74-3.092,0.673-4.625l0.718-0.031
			C32.432,25.931,32.194,27.574,31.652,29.192z"/>
	</g>
	<g>
		<path fill="#dff1ec" d="M31.051,21.061c-0.843-2.649-2.433-4.771-3.618-6.085l0.533-0.482c1.233,1.367,2.889,3.577,3.77,6.349
			L31.051,21.061z"/>
	</g>
	<g>
		<path fill="#dff1ec" d="M22.427,32.903l-0.658-0.291c0.708-1.599,1.067-3.221,1.068-4.822l0.719,0.001
			C23.555,29.493,23.175,31.213,22.427,32.903z"/>
	</g>
	<g>
		<path fill="#dff1ec" d="M20.916,21.397c-1.737-2.823-4.056-4.513-4.079-4.53l0.42-0.584c0.1,0.071,2.456,1.785,4.272,4.737
			L20.916,21.397z"/>
	</g>
	<g>
		<path fill="#dff1ec" d="M20.792,32.353l-0.658-0.291c0.378-0.855,0.647-1.724,0.797-2.583l0.708,0.124
			C21.48,30.52,21.195,31.444,20.792,32.353z"/>
	</g>
	<g>
		<g>
			<path fill="#dff1ec" d="M19.988,23.255c-1.54-3.163-4.188-5.093-4.215-5.112l0.42-0.584c0.114,0.082,2.823,2.056,4.442,5.38
				L19.988,23.255z"/>
		</g>
	</g>
	<g>
		<g>
			<path fill="#dff1ec" d="M18.119,23.242c-1.088-1.854-2.479-3.184-3.211-3.811l0.468-0.546c0.766,0.657,2.222,2.049,3.363,3.994
				L18.119,23.242z"/>
		</g>
	</g>
	<g>
		<path fill="#dff1ec" d="M24.039,33.115l-0.658-0.291c0.843-1.905,1.228-3.837,1.142-5.744l0.718-0.031
			C25.332,29.067,24.928,31.108,24.039,33.115z"/>
	</g>
	<g>
		<path fill="#dff1ec" d="M21.579,19.415c-1.69-2.262-3.505-3.583-3.523-3.596l0.42-0.584c0.078,0.056,1.92,1.394,3.68,3.75
			L21.579,19.415z"/>
	</g>
	<g>
		
			<rect x="35.513" y="9.07" transform="matrix(-0.3164 -0.9486 0.9486 -0.3164 33.1639 53.5394)" fill="#dff1ec" width="0.719" height="11.502"/>
	</g>
	<g>
		<path fill="#dff1ec" d="M9.321,24.019c-0.151,0-0.291-0.095-0.341-0.246c-0.063-0.188,0.039-0.392,0.228-0.455l9.368-3.119
			c0.188-0.063,0.392,0.04,0.455,0.228s-0.04,0.392-0.228,0.455L9.435,24C9.397,24.012,9.359,24.019,9.321,24.019z"/>
	</g>
	<g>
		
			<ellipse transform="matrix(-0.2538 -0.9673 0.9673 -0.2538 39.5536 56.4791)" fill="#dff1ec" cx="41.562" cy="12.983" rx="1.464" ry="0.956"/>
	</g>
	<g>
		
			<rect x="32.401" y="8.711" transform="matrix(-0.5844 -0.8114 0.8114 -0.5844 41.3339 47.2281)" fill="#dff1ec" width="0.718" height="8.639"/>
	</g>
	<g>
		<path fill="#dff1ec" d="M8.298,30.615c-0.113,0-0.224-0.053-0.294-0.151c-0.115-0.162-0.076-0.387,0.086-0.502l8.064-5.697
			c0.162-0.115,0.387-0.076,0.501,0.086c0.114,0.162,0.076,0.387-0.086,0.501L8.505,30.55C8.442,30.594,8.369,30.615,8.298,30.615z"
			/>
	</g>
	<g>
		
			<ellipse transform="matrix(-0.5228 -0.8524 0.8524 -0.5228 46.6745 46.9597)" fill="#dff1ec" cx="36.481" cy="10.416" rx="1.464" ry="0.956"/>
	</g>
	<g>
		<path fill="#dff1ec" d="M18.689,31.481"/>
	</g>
</g>
</svg>
